<mxfile host="app.diagrams.net" agent="Mozilla/5.0 (Windows NT 10.0; Win64; x64) AppleWebKit/537.36 (KHTML, like Gecko) Chrome/128.0.0.0 Safari/537.36 Edg/128.0.0.0" version="24.7.14">
  <diagram name="Page-1" id="J-RfqUQjFWtO7p0HvGnE">
    <mxGraphModel dx="1666" dy="783" grid="1" gridSize="10" guides="1" tooltips="1" connect="1" arrows="1" fold="1" page="1" pageScale="1" pageWidth="850" pageHeight="1100" math="0" shadow="0">
      <root>
        <mxCell id="0" />
        <mxCell id="1" parent="0" />
        <mxCell id="7BtY0bEHpNb1PFrL-J9O-1" value="module_files.f90" style="rounded=1;whiteSpace=wrap;html=1;fillColor=#FFCCCC;" parent="1" vertex="1">
          <mxGeometry x="363" y="20" width="125" height="40" as="geometry" />
        </mxCell>
        <mxCell id="7BtY0bEHpNb1PFrL-J9O-36" value="" style="edgeStyle=orthogonalEdgeStyle;rounded=0;orthogonalLoop=1;jettySize=auto;html=1;" parent="1" source="7BtY0bEHpNb1PFrL-J9O-34" target="7BtY0bEHpNb1PFrL-J9O-35" edge="1">
          <mxGeometry relative="1" as="geometry" />
        </mxCell>
        <mxCell id="7BtY0bEHpNb1PFrL-J9O-34" value="Init_fls(flg, fld)" style="rounded=1;whiteSpace=wrap;html=1;fontStyle=1" parent="1" vertex="1">
          <mxGeometry x="358.0021052631579" y="100" width="134.10526315789477" height="37.60479041916167" as="geometry" />
        </mxCell>
        <mxCell id="7BtY0bEHpNb1PFrL-J9O-38" value="" style="edgeStyle=orthogonalEdgeStyle;rounded=0;orthogonalLoop=1;jettySize=auto;html=1;" parent="1" source="7BtY0bEHpNb1PFrL-J9O-35" target="7BtY0bEHpNb1PFrL-J9O-37" edge="1">
          <mxGeometry relative="1" as="geometry" />
        </mxCell>
        <mxCell id="7BtY0bEHpNb1PFrL-J9O-35" value="&lt;span style=&quot;font-weight: normal;&quot;&gt;Variable declaration&lt;/span&gt;&lt;div&gt;&lt;div style=&quot;&quot;&gt;&lt;span style=&quot;font-weight: 400;&quot;&gt;&amp;nbsp; character(len=*), intent(in), optional :: fld,&lt;/span&gt;&lt;span style=&quot;background-color: initial; font-weight: 400;&quot;&gt;&amp;nbsp; &amp;nbsp; &amp;nbsp;type(fl_ids), intent(inout) :: flg, etc.&lt;/span&gt;&lt;/div&gt;&lt;/div&gt;" style="whiteSpace=wrap;html=1;rounded=1;fontStyle=1;" parent="1" vertex="1">
          <mxGeometry x="305.66" y="160" width="239.69" height="70" as="geometry" />
        </mxCell>
        <mxCell id="7BtY0bEHpNb1PFrL-J9O-40" value="" style="edgeStyle=orthogonalEdgeStyle;rounded=0;orthogonalLoop=1;jettySize=auto;html=1;" parent="1" source="7BtY0bEHpNb1PFrL-J9O-37" target="7BtY0bEHpNb1PFrL-J9O-39" edge="1">
          <mxGeometry relative="1" as="geometry" />
        </mxCell>
        <mxCell id="7BtY0bEHpNb1PFrL-J9O-37" value="&lt;span style=&quot;font-weight: 400;&quot;&gt;Allocation array to store file info:&amp;nbsp;&lt;/span&gt;&lt;span style=&quot;font-weight: 400;&quot;&gt;allocate(flg%fl(14))&lt;/span&gt;&lt;div&gt;&lt;span style=&quot;font-weight: 400;&quot;&gt;&lt;br&gt;&lt;/span&gt;&lt;div&gt;&lt;span style=&quot;font-weight: 400; background-color: initial;&quot;&gt;Assign default file names to array&lt;/span&gt;&lt;div&gt;&lt;div&gt;&lt;br&gt;&lt;/div&gt;&lt;/div&gt;&lt;/div&gt;&lt;/div&gt;" style="whiteSpace=wrap;html=1;rounded=1;fontStyle=1;" parent="1" vertex="1">
          <mxGeometry x="327" y="260" width="196.75" height="80" as="geometry" />
        </mxCell>
        <mxCell id="7BtY0bEHpNb1PFrL-J9O-42" style="edgeStyle=orthogonalEdgeStyle;rounded=0;orthogonalLoop=1;jettySize=auto;html=1;entryX=0;entryY=0.5;entryDx=0;entryDy=0;" parent="1" source="7BtY0bEHpNb1PFrL-J9O-39" target="7BtY0bEHpNb1PFrL-J9O-41" edge="1">
          <mxGeometry relative="1" as="geometry" />
        </mxCell>
        <mxCell id="7BtY0bEHpNb1PFrL-J9O-45" value="" style="edgeStyle=orthogonalEdgeStyle;rounded=0;orthogonalLoop=1;jettySize=auto;html=1;" parent="1" source="7BtY0bEHpNb1PFrL-J9O-39" target="7BtY0bEHpNb1PFrL-J9O-44" edge="1">
          <mxGeometry relative="1" as="geometry" />
        </mxCell>
        <mxCell id="7BtY0bEHpNb1PFrL-J9O-39" value="&lt;span style=&quot;font-weight: normal;&quot;&gt;if (.not. allocated(mtsfl%fl))&lt;/span&gt;" style="rhombus;whiteSpace=wrap;html=1;rounded=1;fontStyle=1;fillColor=#F19C99;" parent="1" vertex="1">
          <mxGeometry x="314.6" y="370" width="221.81" height="50" as="geometry" />
        </mxCell>
        <mxCell id="7BtY0bEHpNb1PFrL-J9O-41" value="&lt;div&gt;&lt;div&gt;&lt;div&gt;&lt;div&gt;&lt;span style=&quot;font-weight: 400;&quot;&gt;call init_metricsout_files()&lt;/span&gt;&lt;br&gt;&lt;/div&gt;&lt;/div&gt;&lt;/div&gt;&lt;/div&gt;" style="whiteSpace=wrap;html=1;rounded=1;fontStyle=1;fillColor=#FFE599;" parent="1" vertex="1">
          <mxGeometry x="580" y="380" width="180" height="30" as="geometry" />
        </mxCell>
        <mxCell id="7BtY0bEHpNb1PFrL-J9O-43" value="&lt;div&gt;&lt;font style=&quot;font-size: 9px;&quot;&gt;Dependencies:&lt;/font&gt;&lt;/div&gt;&lt;div&gt;&lt;font style=&quot;font-size: 9px;&quot;&gt;Modules\simulation_statistics\SIMSTATS_config.f90: init_metricsout_files&lt;/font&gt;&lt;/div&gt;" style="rounded=0;whiteSpace=wrap;html=1;align=left;" parent="1" vertex="1">
          <mxGeometry x="10" y="10" width="330" height="50" as="geometry" />
        </mxCell>
        <mxCell id="7BtY0bEHpNb1PFrL-J9O-44" value="&lt;span style=&quot;font-weight: normal;&quot;&gt;Assign default file names for use by SIMSTATS in&amp;nbsp;&lt;/span&gt;&lt;span style=&quot;font-weight: 400;&quot;&gt;mtsfl%fl&lt;/span&gt;" style="whiteSpace=wrap;html=1;fillColor=#FFFFFF;rounded=1;fontStyle=1;" parent="1" vertex="1">
          <mxGeometry x="363" y="450" width="125" height="60" as="geometry" />
        </mxCell>
        <mxCell id="7BtY0bEHpNb1PFrL-J9O-55" value="" style="edgeStyle=orthogonalEdgeStyle;rounded=0;orthogonalLoop=1;jettySize=auto;html=1;" parent="1" source="7BtY0bEHpNb1PFrL-J9O-52" target="7BtY0bEHpNb1PFrL-J9O-54" edge="1">
          <mxGeometry relative="1" as="geometry" />
        </mxCell>
        <mxCell id="7BtY0bEHpNb1PFrL-J9O-52" value="&lt;span style=&quot;font-weight: normal;&quot;&gt;Replace default file information with values from file in array&amp;nbsp;&lt;/span&gt;&lt;span style=&quot;font-weight: 400;&quot;&gt;flg%fl&lt;/span&gt;" style="whiteSpace=wrap;html=1;fillColor=#FFFFFF;rounded=1;fontStyle=1;" parent="1" vertex="1">
          <mxGeometry x="363.00000000000006" y="560" width="142.2" height="50" as="geometry" />
        </mxCell>
        <mxCell id="7BtY0bEHpNb1PFrL-J9O-54" value="&lt;span style=&quot;font-weight: normal;&quot;&gt;end subroutine&lt;/span&gt;" style="whiteSpace=wrap;html=1;fillColor=#FFFFFF;rounded=1;fontStyle=1;" parent="1" vertex="1">
          <mxGeometry x="382.99" y="640" width="102.19" height="40" as="geometry" />
        </mxCell>
        <mxCell id="kwlw4qPWGgzz3laoVxr3-1" style="edgeStyle=orthogonalEdgeStyle;rounded=0;orthogonalLoop=1;jettySize=auto;html=1;entryX=0.443;entryY=0;entryDx=0;entryDy=0;entryPerimeter=0;" edge="1" parent="1" source="7BtY0bEHpNb1PFrL-J9O-44" target="7BtY0bEHpNb1PFrL-J9O-52">
          <mxGeometry relative="1" as="geometry" />
        </mxCell>
      </root>
    </mxGraphModel>
  </diagram>
</mxfile>
